<svg id="Layer_1" data-name="Layer 1" xmlns="http://www.w3.org/2000/svg" xmlns:xlink="http://www.w3.org/1999/xlink" viewBox="0 0 717 208"><defs><style>.cls-1{fill:#fff;}.cls-2{mask:url(#mask);}.cls-3{fill:#1c1e1d;}.cls-4{mask:url(#mask-2-2);}.cls-5{mask:url(#mask-3);}.cls-6{fill:none;}</style><mask id="mask" x="25.51" y="19.45" width="126.18" height="101.47" maskUnits="userSpaceOnUse"><g transform="translate(-16.5 -271)"><g id="mask-2"><path id="path-1" class="cls-1" d="M42,358.76l86.31.69a73.31,73.31,0,0,1,35.33,16.72c.92.8,4.54,0,4.54,0l-.44-85.72L42,290.6v68.16"/></g></g></mask><mask id="mask-2-2" x="25.51" y="19.45" width="126.18" height="88.46" maskUnits="userSpaceOnUse"><g transform="translate(-16.5 -271)"><g id="mask-2-3" data-name="mask-2"><path id="path-1-2" data-name="path-1" class="cls-1" d="M42,358.76l86.31.69a73.31,73.31,0,0,1,35.33,16.72c.92.8,4.54,0,4.54,0l-.44-85.72L42,290.6v68.16"/></g></g></mask><mask id="mask-3" x="18.97" y="19.45" width="132.73" height="86.08" maskUnits="userSpaceOnUse"><g transform="translate(-16.5 -271)"><g id="mask-2-4" data-name="mask-2"><path id="path-1-3" data-name="path-1" class="cls-1" d="M42,358.76l86.31.69a73.31,73.31,0,0,1,35.33,16.72c.92.8,4.54,0,4.54,0l-.44-85.72L42,290.6v68.16"/></g></g></mask></defs><title>bitmartlogo-freelogovectors.net</title><g id="编组"><g class="cls-2"><path id="Fill-77" class="cls-3" d="M149.86,309.76q-15.41-12.69-42.38-12.69H62.67v6.26h44c15.29,0,29.14,3.15,37.59,10.45S159.1,332,159.1,345.38c0,12.95-5.55,22.55-14.34,29.81s-24.47,10.46-40.16,10.46H54.07v6.27H105q28.39,0,44.36-12.33t16-34.7q0-22.44-15.41-35.12" transform="translate(-16.5 -271)"/></g><g class="cls-4"><path id="Fill-79" class="cls-3" d="M146.06,318.83c-6.39-4.85-13.73-8.75-34.5-8.75H77v6.1s15.46-.2,33.79,0c17.71.19,24.21,2.18,30.17,6.59,7.62,5.64,12.36,12.6,12.36,22.34,0,9.38-4.81,16-12.47,21.67-7.84,5.77-19.82,5.84-24.7,6-1.84,0-25.66,0-25.66,0v6.1s11.85.17,19.18,0c16.81-.37,26.79-1.37,36.07-8.27,8.72-6.47,13.33-15,13.33-25.81,0-14.26-7.13-21.44-13-25.91" transform="translate(-16.5 -271)"/></g><g class="cls-5"><path id="Fill-80" class="cls-3" d="M143,326.89c-4.79-3-9-5-28.85-5H89.28v4h24.16c17.58,0,24.24,3.13,26.26,4.37,4,2.42,9.16,6.36,9.16,14.39,0,5.13-3,11.58-7.52,14.11-4.09,2.3-11.56,4.36-24.72,4.36H35.47v4h81.45c15.87,0,21.31-1.76,26.91-4.85s9.35-9.45,9.35-17.6c0-9.12-5.09-14.58-10.21-17.78" transform="translate(-16.5 -271)"/></g></g><path id="Fill-81" class="cls-3" d="M158.77,371.19q-15.4-12.69-42.38-12.69h-30v6.26h29.14c15.3,0,29.15,3.16,37.6,10.45S168,393.38,168,406.81c0,12.95-5.54,22.55-14.33,29.81s-24.47,10.46-40.17,10.46H63v6.26h50.88q28.39,0,44.35-12.33t16-34.69q0-22.44-15.41-35.12" transform="translate(-16.5 -271)"/><path id="Fill-82" class="cls-3" d="M155,380.25c-6.39-4.84-13.73-8.75-34.5-8.75h-47v6.1s27.88-.2,46.22,0c17.71.19,24.2,2.19,30.16,6.6,7.64,5.64,12.37,12.59,12.37,22.33,0,9.39-4.81,16-12.47,21.68-7.84,5.77-19.82,5.84-24.71,6-1.84,0-25.66,0-25.66,0v6.1s11.86.16,19.19,0c16.8-.39,26.79-1.39,36.07-8.28,8.71-6.48,13.32-15,13.32-25.82,0-14.24-7.12-21.44-13-25.91" transform="translate(-16.5 -271)"/><polygon id="Fill-83" class="cls-3" points="67.04 129.97 111.07 129.97 111.07 126.56 67.04 126.56 67.04 129.97"/><polygon id="Fill-84" class="cls-3" points="85.2 141.9 110.82 141.9 110.82 138.97 85.2 138.97 85.2 141.9"/><polygon id="Fill-85" class="cls-3" points="46.48 129.97 59.52 129.97 59.52 126.56 46.48 126.56 46.48 129.97"/><polygon id="Fill-86" class="cls-3" points="38.35 142.14 77.97 142.14 77.97 138.73 38.35 138.73 38.35 142.14"/><polygon id="Fill-87" class="cls-3" points="48.11 54.61 63.55 54.61 63.55 51.79 48.11 51.79 48.11 54.61"/><polygon id="Fill-88" class="cls-3" points="37.36 77.43 72.72 77.43 72.72 74.16 37.36 74.16 37.36 77.43"/><polygon id="Fill-89" class="cls-3" points="38.35 168.83 75.63 168.83 75.63 164.75 38.35 164.75 38.35 168.83"/><polygon id="Fill-90" class="cls-3" points="29.05 182.09 38.37 182.09 38.37 176.17 29.05 176.17 29.05 182.09"/><polygon id="Fill-91" class="cls-3" points="52.35 67.44 110.9 67.44 110.9 64.17 52.35 64.17 52.35 67.44"/><polygon id="Fill-92" class="cls-3" points="81.63 77.43 109.79 77.43 109.79 74.16 81.63 74.16 81.63 77.43"/><path id="Fill-93" class="cls-3" d="M151.89,388.93c-4.81-2.91-9-4.86-28.86-4.86H91.38V388h31c17.58,0,24.26,3,26.27,4.21,3.94,2.34,9.16,6.14,9.16,13.89,0,5-3,11.18-7.53,13.62-4.08,2.22-11.56,4.21-24.72,4.21H44.38v3.88h81.44c15.88,0,21.33-1.7,26.92-4.67s9.34-9.13,9.34-17c0-8.79-5.08-14.06-10.19-17.15" transform="translate(-16.5 -271)"/><path id="Fill-94" class="cls-3" d="M235.26,380.16v35.68h19.49q12.64,0,19.61-4.84a15.32,15.32,0,0,0,7-13.27q0-17.58-29.56-17.57Zm0-42.47v32H250q11.79,0,18.54-4.59a14.8,14.8,0,0,0,6.75-13q0-14.46-23.5-14.46Zm-14.35,88.67V327.18h34.87q15.89,0,25.2,6.29t9.32,16.39a21.14,21.14,0,0,1-5.64,14.67q-5.64,6.23-15.55,8.85v.27q12.39,1.19,19.82,7.58a20.91,20.91,0,0,1,7.44,16.63q0,12.72-11.28,20.61t-28.46,7.89Z" transform="translate(-16.5 -271)"/><path id="Fill-95" class="cls-3" d="M312.35,426.36h14V355.54h-14Zm7.18-88.81a10.08,10.08,0,0,1-6.41-2.07,6.39,6.39,0,0,1-2.65-5.25,6.5,6.5,0,0,1,2.65-5.3,10,10,0,0,1,6.41-2.11,10.34,10.34,0,0,1,6.54,2.11,6.46,6.46,0,0,1,0,10.48,10.18,10.18,0,0,1-6.54,2.14Z" transform="translate(-16.5 -271)"/><path id="Fill-96" class="cls-3" d="M388.33,425.67q-5,2.22-13.08,2.21-23,0-23-20.75V365.22h-15v-9.68h15V338.25l14-3.67v21h22.05v9.68H366.28v39.91c0,4.74,1,8.14,3,10.16s5.29,3,9.92,3a17.11,17.11,0,0,0,9.14-2.36v9.69" transform="translate(-16.5 -271)"/><path id="Fill-97" class="cls-3" d="M515.56,426.36H502.43V365.15a175.77,175.77,0,0,1,1.1-17.75h-.31a49.15,49.15,0,0,1-3.38,8.84l-38.52,70.12h-6.45l-38.44-69.61a47.57,47.57,0,0,1-3.38-9.35h-.31a176.4,176.4,0,0,1,.63,17.87v61.09H400.63V335.12h17.45l34.59,63.62a72.31,72.31,0,0,1,5.19,10.95h.47q3.38-7.5,5.43-11.2l35.29-63.37h16.51v91.24" transform="translate(-16.5 -271)"/><path id="Fill-98" class="cls-3" d="M586.78,390.53l-21.1,2.36q-9.75,1.1-14.7,3.9t-5,9.92a10,10,0,0,0,4.57,8.48q4.56,3.29,12.17,3.28,10.43,0,17.22-5.91a19,19,0,0,0,6.79-15Zm14,35.83h-14V415.29h-.33Q577.3,428,559.53,428q-13.08,0-20.47-5.6a17.78,17.78,0,0,1-7.39-14.87q0-19.85,28.89-23.11l26.22-3q0-18-18-18.05a49.47,49.47,0,0,0-28.54,8.71V360.52q12.9-6.64,29.74-6.64,30.85,0,30.85,26.42v46.06Z" transform="translate(-16.5 -271)"/><path id="Fill-99" class="cls-3" d="M665.84,367q-3.68-2.29-10.6-2.29a19.2,19.2,0,0,0-15,6.85q-6,6.85-6,18.68v36.1h-14V355.54h14v14.59h.34a24.92,24.92,0,0,1,9.15-11.66,23.86,23.86,0,0,1,13.75-4.18,27.78,27.78,0,0,1,8.38,1V367" transform="translate(-16.5 -271)"/><path id="Fill-100" class="cls-3" d="M714.63,425.67q-4.95,2.22-13.07,2.21-23,0-23-20.75V365.22h-15v-9.68h15V338.25l14-3.67v21h22v9.68h-22v39.91c0,4.74,1,8.14,3,10.16s5.29,3,9.91,3a17.06,17.06,0,0,0,9.14-2.36v9.69" transform="translate(-16.5 -271)"/><rect class="cls-6" width="717" height="208"/></svg>